# xmcd CD database file
#
# Track frame offsets:
#	150
#	11605
#	22767
#	34812
#	46622
#	57140
#	68732
#	78720
#	91147
#	102800
#	111767
#	124862
#	136027
#	145695
#	155875
#	166280
#	178662
#	189237
#	199952
#	212395
#	223560
#	233677
#
# Disc length: 3266 seconds
#
# Revision: 2
# Processed by: cddbd v1.5.1PL2 Copyright (c) Steve Scherf et al.
# Submitted via: CDex 1.51
#
DISCID=1d0cc016
DTITLE=Paul Anka - Original Classics - ABC Paramount Recordings - Disc 2
DYEAR=1991
DGENRE=R&B
TTITLE0=MY HOME TOWN
TTITLE1=ADAM and EVE(From Universal's "The Private Lives of Adam and Eve"
TTITLE2=PUPPY LOVE
TTITLE3=SOMETHING HAPPENED
TTITLE4=DANCE ON THE PHONE
TTITLE5=KISSIN' ON LITTLE GIRL
TTITLE6=CINDERELLA
TTITLE7=SUMMER'S GONE
TTITLE8=HELLO YOUNG LOVERS
TTITLE9=I'M COMING HOME
TTITLE10=CRY
TTITLE11=THE STORY OF MY LOVE
TTITLE12=TONIGHT MY LOVE,TONIGHT
TTITLE13=I LOVE YOU IN THE SAME OLD WAY
TTITLE14=I'D HAVE TO SHARE
TTITLE15=THE BELLS AT MY WEDDING
TTITLE16=LOVELAND
TTITLE17=FOOLS HALL OF FAME
TTITLE18=FAR FROM THE LIGHTS OF TOWN
TTITLE19=I'D NEVER FIND ANOTHER YOU
TTITLE20=UH-HUH
TTITLE21=I REMEMBER
EXTD=YEAR: 1991
EXTT0=
EXTT1=
EXTT2=
EXTT3=
EXTT4=
EXTT5=
EXTT6=
EXTT7=
EXTT8=
EXTT9=
EXTT10=
EXTT11=
EXTT12=
EXTT13=
EXTT14=
EXTT15=
EXTT16=
EXTT17=
EXTT18=
EXTT19=
EXTT20=
EXTT21=
PLAYORDER=
